<svg xmlns="http://www.w3.org/2000/svg" xmlns:xlink="http://www.w3.org/1999/xlink" viewBox="0 0 1440 940"><title>Gosper curve</title><defs><path id="curve" d="M36.5000,53.6936 L37.5000,53.6936 L38.0000,52.8275 L37.0000,52.8275 L36.5000,51.9615 L37.5000,51.9615 L38.5000,51.9615 L39.0000,52.8275 L40.0000,52.8275 L40.5000,51.9615 L41.0000,51.0955 L40.0000,51.0955 L39.5000,51.9615 L39.0000,51.0955 L39.5000,50.2295 L39.0000,49.3634 L38.0000,49.3634 L37.0000,49.3634 L37.5000,50.2295 L38.5000,50.2295 L38.0000,51.0955 L37.0000,51.0955 L36.5000,50.2295 L35.5000,50.2295 L36.0000,51.0955 L35.5000,51.9615 L35.0000,51.0955 L34.5000,50.2295 L35.0000,49.3634 L36.0000,49.3634 L36.5000,48.4974 L35.5000,48.4974 L35.0000,47.6314 L36.0000,47.6314 L37.0000,47.6314 L37.5000,48.4974 L38.5000,48.4974 L39.0000,47.6314 L38.0000,47.6314 L37.5000,46.7654 L38.5000,46.7654 L39.5000,46.7654 L40.0000,47.6314 L39.5000,48.4974 L40.0000,49.3634 L40.5000,50.2295 L41.0000,49.3634 L40.5000,48.4974 L41.5000,48.4974 L42.0000,49.3634 L43.0000,49.3634 L43.5000,48.4974 L42.5000,48.4974 L42.0000,47.6314 L43.0000,47.6314 L44.0000,47.6314 L44.5000,48.4974 L45.5000,48.4974 L46.0000,47.6314 L46.5000,46.7654 L45.5000,46.7654 L45.0000,47.6314 L44.5000,46.7654 L45.0000,45.8993 L46.0000,45.8993 L46.5000,45.0333 L47.0000,44.1673 L46.0000,44.1673 L45.5000,45.0333 L45.0000,44.1673 L45.5000,43.3013 L45.0000,42.4352 L44.0000,42.4352 L43.0000,42.4352 L43.5000,43.3013 L44.5000,43.3013 L44.0000,44.1673 L43.0000,44.1673 L42.5000,45.0333 L43.0000,45.8993 L43.5000,45.0333 L44.5000,45.0333 L44.0000,45.8993 L43.5000,46.7654 L42.5000,46.7654 L42.0000,45.8993 L41.0000,45.8993 L41.5000,46.7654 L41.0000,47.6314 L40.5000,46.7654 L40.0000,45.8993 L40.5000,45.0333 L41.5000,45.0333 L42.0000,44.1673 L42.5000,43.3013 L41.5000,43.3013 L41.0000,44.1673 L40.5000,43.3013 L41.0000,42.4352 L40.5000,41.5692 L39.5000,41.5692 L40.0000,42.4352 L39.5000,43.3013 L39.0000,42.4352 L38.5000,41.5692 L39.0000,40.7032 L38.5000,39.8372 L37.5000,39.8372 L36.5000,39.8372 L37.0000,40.7032 L38.0000,40.7032 L37.5000,41.5692 L36.5000,41.5692 L36.0000,40.7032 L35.0000,40.7032 L34.0000,40.7032 L34.5000,41.5692 L35.5000,41.5692 L35.0000,42.4352 L34.0000,42.4352 L33.5000,43.3013 L34.0000,44.1673 L34.5000,45.0333 L35.0000,44.1673 L34.5000,43.3013 L35.5000,43.3013 L36.0000,44.1673 L37.0000,44.1673 L37.5000,43.3013 L36.5000,43.3013 L36.0000,42.4352 L37.0000,42.4352 L38.0000,42.4352 L38.5000,43.3013 L38.0000,44.1673 L38.5000,45.0333 L39.0000,44.1673 L40.0000,44.1673 L39.5000,45.0333 L39.0000,45.8993 L38.0000,45.8993 L37.5000,45.0333 L36.5000,45.0333 L35.5000,45.0333 L36.0000,45.8993 L37.0000,45.8993 L36.5000,46.7654 L35.5000,46.7654 L35.0000,45.8993 L34.0000,45.8993 L34.5000,46.7654 L34.0000,47.6314 L33.5000,46.7654 L33.0000,45.8993 L33.5000,45.0333 L33.0000,44.1673 L32.0000,44.1673 L31.0000,44.1673 L31.5000,45.0333 L32.5000,45.0333 L32.0000,45.8993 L31.0000,45.8993 L30.5000,46.7654 L31.0000,47.6314 L31.5000,48.4974 L32.0000,47.6314 L31.5000,46.7654 L32.5000,46.7654 L33.0000,47.6314 L32.5000,48.4974 L33.0000,49.3634 L33.5000,48.4974 L34.5000,48.4974 L34.0000,49.3634 L33.5000,50.2295 L32.5000,50.2295 L32.0000,49.3634 L31.0000,49.3634 L31.5000,50.2295 L31.0000,51.0955 L30.5000,50.2295 L30.0000,49.3634 L30.5000,48.4974 L30.0000,47.6314 L29.0000,47.6314 L29.5000,48.4974 L29.0000,49.3634 L28.5000,48.4974 L28.0000,47.6314 L28.5000,46.7654 L29.5000,46.7654 L30.0000,45.8993 L30.5000,45.0333 L29.5000,45.0333 L29.0000,45.8993 L28.5000,45.0333 L29.0000,44.1673 L30.0000,44.1673 L30.5000,43.3013 L29.5000,43.3013 L29.0000,42.4352 L30.0000,42.4352 L31.0000,42.4352 L31.5000,43.3013 L32.5000,43.3013 L33.0000,42.4352 L33.5000,41.5692 L32.5000,41.5692 L32.0000,42.4352 L31.5000,41.5692 L32.0000,40.7032 L31.5000,39.8372 L30.5000,39.8372 L29.5000,39.8372 L30.0000,40.7032 L31.0000,40.7032 L30.5000,41.5692 L29.5000,41.5692 L29.0000,40.7032 L28.0000,40.7032 L28.5000,41.5692 L28.0000,42.4352 L27.5000,41.5692 L27.0000,40.7032 L27.5000,39.8372 L28.5000,39.8372 L29.0000,38.9711 L28.0000,38.9711 L27.5000,38.1051 L28.5000,38.1051 L29.5000,38.1051 L30.0000,38.9711 L31.0000,38.9711 L31.5000,38.1051 L30.5000,38.1051 L30.0000,37.2391 L31.0000,37.2391 L32.0000,37.2391 L32.5000,38.1051 L32.0000,38.9711 L32.5000,39.8372 L33.0000,40.7032 L33.5000,39.8372 L33.0000,38.9711 L34.0000,38.9711 L34.5000,39.8372 L35.5000,39.8372 L36.0000,38.9711 L35.0000,38.9711 L34.5000,38.1051 L35.5000,38.1051 L36.5000,38.1051 L37.0000,38.9711 L38.0000,38.9711 L38.5000,38.1051 L39.0000,37.2391 L38.0000,37.2391 L37.5000,38.1051 L37.0000,37.2391 L37.5000,36.3731 L37.0000,35.5070 L36.0000,35.5070 L35.0000,35.5070 L35.5000,36.3731 L36.5000,36.3731 L36.0000,37.2391 L35.0000,37.2391 L34.5000,36.3731 L33.5000,36.3731 L34.0000,37.2391 L33.5000,38.1051 L33.0000,37.2391 L32.5000,36.3731 L33.0000,35.5070 L34.0000,35.5070 L34.5000,34.6410 L33.5000,34.6410 L33.0000,33.7750 L34.0000,33.7750 L35.0000,33.7750 L35.5000,34.6410 L36.5000,34.6410 L37.0000,33.7750 L36.0000,33.7750 L35.5000,32.9090 L36.5000,32.9090 L37.5000,32.9090 L38.0000,33.7750 L37.5000,34.6410 L38.0000,35.5070 L38.5000,36.3731 L39.0000,35.5070 L38.5000,34.6410 L39.5000,34.6410 L40.0000,35.5070 L39.5000,36.3731 L40.0000,37.2391 L40.5000,36.3731 L41.5000,36.3731 L41.0000,37.2391 L40.5000,38.1051 L39.5000,38.1051 L39.0000,38.9711 L39.5000,39.8372 L40.0000,40.7032 L40.5000,39.8372 L40.0000,38.9711 L41.0000,38.9711 L41.5000,39.8372 L41.0000,40.7032 L41.5000,41.5692 L42.0000,42.4352 L42.5000,41.5692 L42.0000,40.7032 L43.0000,40.7032 L43.5000,41.5692 L44.5000,41.5692 L45.0000,40.7032 L45.5000,39.8372 L44.5000,39.8372 L44.0000,40.7032 L43.5000,39.8372 L44.0000,38.9711 L43.5000,38.1051 L42.5000,38.1051 L43.0000,38.9711 L42.5000,39.8372 L42.0000,38.9711 L41.5000,38.1051 L42.0000,37.2391 L43.0000,37.2391 L43.5000,36.3731 L42.5000,36.3731 L42.0000,35.5070 L43.0000,35.5070 L44.0000,35.5070 L44.5000,36.3731 L44.0000,37.2391 L44.5000,38.1051 L45.0000,38.9711 L45.5000,38.1051 L45.0000,37.2391 L46.0000,37.2391 L46.5000,38.1051 L47.5000,38.1051 L48.0000,37.2391 L47.0000,37.2391 L46.5000,36.3731 L47.5000,36.3731 L48.5000,36.3731 L49.0000,37.2391 L50.0000,37.2391 L50.5000,36.3731 L51.0000,35.5070 L50.0000,35.5070 L49.5000,36.3731 L49.0000,35.5070 L49.5000,34.6410 L49.0000,33.7750 L48.0000,33.7750 L47.0000,33.7750 L47.5000,34.6410 L48.5000,34.6410 L48.0000,35.5070 L47.0000,35.5070 L46.5000,34.6410 L45.5000,34.6410 L46.0000,35.5070 L45.5000,36.3731 L45.0000,35.5070 L44.5000,34.6410 L45.0000,33.7750 L46.0000,33.7750 L46.5000,32.9090 L45.5000,32.9090 L45.0000,32.0429 L46.0000,32.0429 L47.0000,32.0429 L47.5000,32.9090 L48.5000,32.9090 L49.0000,32.0429 L48.0000,32.0429 L47.5000,31.1769 L48.5000,31.1769 L49.5000,31.1769 L50.0000,32.0429 L49.5000,32.9090 L50.0000,33.7750 L50.5000,34.6410 L51.0000,33.7750 L50.5000,32.9090 L51.5000,32.9090 L52.0000,33.7750 L53.0000,33.7750 L53.5000,32.9090 L52.5000,32.9090 L52.0000,32.0429 L53.0000,32.0429 L54.0000,32.0429 L54.5000,32.9090 L55.5000,32.9090 L56.0000,32.0429 L56.5000,31.1769 L55.5000,31.1769 L55.0000,32.0429 L54.5000,31.1769 L55.0000,30.3109 L56.0000,30.3109 L56.5000,29.4449 L57.0000,28.5788 L56.0000,28.5788 L55.5000,29.4449 L55.0000,28.5788 L55.5000,27.7128 L55.0000,26.8468 L54.0000,26.8468 L53.0000,26.8468 L53.5000,27.7128 L54.5000,27.7128 L54.0000,28.5788 L53.0000,28.5788 L52.5000,29.4449 L53.0000,30.3109 L53.5000,29.4449 L54.5000,29.4449 L54.0000,30.3109 L53.5000,31.1769 L52.5000,31.1769 L52.0000,30.3109 L51.0000,30.3109 L51.5000,31.1769 L51.0000,32.0429 L50.5000,31.1769 L50.0000,30.3109 L50.5000,29.4449 L51.5000,29.4449 L52.0000,28.5788 L52.5000,27.7128 L51.5000,27.7128 L51.0000,28.5788 L50.5000,27.7128 L51.0000,26.8468 L52.0000,26.8468 L52.5000,25.9808 L51.5000,25.9808 L51.0000,25.1147 L52.0000,25.1147 L53.0000,25.1147 L53.5000,25.9808 L54.5000,25.9808 L55.0000,25.1147 L55.5000,24.2487 L54.5000,24.2487 L54.0000,25.1147 L53.5000,24.2487 L54.0000,23.3827 L55.0000,23.3827 L55.5000,22.5167 L56.0000,21.6506 L55.0000,21.6506 L54.5000,22.5167 L54.0000,21.6506 L54.5000,20.7846 L54.0000,19.9186 L53.0000,19.9186 L52.0000,19.9186 L52.5000,20.7846 L53.5000,20.7846 L53.0000,21.6506 L52.0000,21.6506 L51.5000,22.5167 L52.0000,23.3827 L52.5000,22.5167 L53.5000,22.5167 L53.0000,23.3827 L52.5000,24.2487 L51.5000,24.2487 L51.0000,23.3827 L50.0000,23.3827 L50.5000,24.2487 L50.0000,25.1147 L49.5000,24.2487 L49.0000,23.3827 L49.5000,22.5167 L50.5000,22.5167 L51.0000,21.6506 L51.5000,20.7846 L50.5000,20.7846 L50.0000,21.6506 L49.5000,20.7846 L50.0000,19.9186 L49.5000,19.0526 L48.5000,19.0526 L49.0000,19.9186 L48.5000,20.7846 L48.0000,19.9186 L47.5000,19.0526 L48.0000,18.1865 L47.5000,17.3205 L46.5000,17.3205 L45.5000,17.3205 L46.0000,18.1865 L47.0000,18.1865 L46.5000,19.0526 L45.5000,19.0526 L45.0000,18.1865 L44.0000,18.1865 L43.0000,18.1865 L43.5000,19.0526 L44.5000,19.0526 L44.0000,19.9186 L43.0000,19.9186 L42.5000,20.7846 L43.0000,21.6506 L43.5000,22.5167 L44.0000,21.6506 L43.5000,20.7846 L44.5000,20.7846 L45.0000,21.6506 L46.0000,21.6506 L46.5000,20.7846 L45.5000,20.7846 L45.0000,19.9186 L46.0000,19.9186 L47.0000,19.9186 L47.5000,20.7846 L47.0000,21.6506 L47.5000,22.5167 L48.0000,21.6506 L49.0000,21.6506 L48.5000,22.5167 L48.0000,23.3827 L47.0000,23.3827 L46.5000,22.5167 L45.5000,22.5167 L44.5000,22.5167 L45.0000,23.3827 L46.0000,23.3827 L45.5000,24.2487 L44.5000,24.2487 L44.0000,25.1147 L44.5000,25.9808 L45.0000,25.1147 L46.0000,25.1147 L45.5000,25.9808 L45.0000,26.8468 L44.0000,26.8468 L43.5000,27.7128 L44.0000,28.5788 L44.5000,29.4449 L45.0000,28.5788 L44.5000,27.7128 L45.5000,27.7128 L46.0000,28.5788 L47.0000,28.5788 L47.5000,27.7128 L48.0000,26.8468 L47.0000,26.8468 L46.5000,27.7128 L46.0000,26.8468 L46.5000,25.9808 L47.5000,25.9808 L48.0000,25.1147 L47.0000,25.1147 L46.5000,24.2487 L47.5000,24.2487 L48.5000,24.2487 L49.0000,25.1147 L48.5000,25.9808 L49.0000,26.8468 L49.5000,25.9808 L50.5000,25.9808 L50.0000,26.8468 L49.5000,27.7128 L48.5000,27.7128 L48.0000,28.5788 L48.5000,29.4449 L49.0000,28.5788 L50.0000,28.5788 L49.5000,29.4449 L49.0000,30.3109 L48.0000,30.3109 L47.5000,29.4449 L46.5000,29.4449 L45.5000,29.4449 L46.0000,30.3109 L47.0000,30.3109 L46.5000,31.1769 L45.5000,31.1769 L45.0000,30.3109 L44.0000,30.3109 L44.5000,31.1769 L44.0000,32.0429 L43.5000,31.1769 L43.0000,30.3109 L43.5000,29.4449 L43.0000,28.5788 L42.0000,28.5788 L41.0000,28.5788 L41.5000,29.4449 L42.5000,29.4449 L42.0000,30.3109 L41.0000,30.3109 L40.5000,31.1769 L41.0000,32.0429 L41.5000,32.9090 L42.0000,32.0429 L41.5000,31.1769 L42.5000,31.1769 L43.0000,32.0429 L42.5000,32.9090 L43.0000,33.7750 L43.5000,32.9090 L44.5000,32.9090 L44.0000,33.7750 L43.5000,34.6410 L42.5000,34.6410 L42.0000,33.7750 L41.0000,33.7750 L41.5000,34.6410 L41.0000,35.5070 L40.5000,34.6410 L40.0000,33.7750 L40.5000,32.9090 L40.0000,32.0429 L39.0000,32.0429 L39.5000,32.9090 L39.0000,33.7750 L38.5000,32.9090 L38.0000,32.0429 L38.5000,31.1769 L39.5000,31.1769 L40.0000,30.3109 L40.5000,29.4449 L39.5000,29.4449 L39.0000,30.3109 L38.5000,29.4449 L39.0000,28.5788 L40.0000,28.5788 L40.5000,27.7128 L39.5000,27.7128 L39.0000,26.8468 L40.0000,26.8468 L41.0000,26.8468 L41.5000,27.7128 L42.5000,27.7128 L43.0000,26.8468 L43.5000,25.9808 L42.5000,25.9808 L42.0000,26.8468 L41.5000,25.9808 L42.0000,25.1147 L43.0000,25.1147 L43.5000,24.2487 L44.0000,23.3827 L43.0000,23.3827 L42.5000,24.2487 L42.0000,23.3827 L42.5000,22.5167 L42.0000,21.6506 L41.0000,21.6506 L40.0000,21.6506 L40.5000,22.5167 L41.5000,22.5167 L41.0000,23.3827 L40.0000,23.3827 L39.5000,24.2487 L40.0000,25.1147 L40.5000,24.2487 L41.5000,24.2487 L41.0000,25.1147 L40.5000,25.9808 L39.5000,25.9808 L39.0000,25.1147 L38.0000,25.1147 L38.5000,25.9808 L38.0000,26.8468 L37.5000,25.9808 L37.0000,25.1147 L37.5000,24.2487 L38.5000,24.2487 L39.0000,23.3827 L39.5000,22.5167 L38.5000,22.5167 L38.0000,23.3827 L37.5000,22.5167 L38.0000,21.6506 L37.5000,20.7846 L36.5000,20.7846 L37.0000,21.6506 L36.5000,22.5167 L36.0000,21.6506 L35.5000,20.7846 L36.0000,19.9186 L35.5000,19.0526 L34.5000,19.0526 L33.5000,19.0526 L34.0000,19.9186 L35.0000,19.9186 L34.5000,20.7846 L33.5000,20.7846 L33.0000,21.6506 L33.5000,22.5167 L34.0000,23.3827 L34.5000,22.5167 L34.0000,21.6506 L35.0000,21.6506 L35.5000,22.5167 L35.0000,23.3827 L35.5000,24.2487 L36.0000,23.3827 L37.0000,23.3827 L36.5000,24.2487 L36.0000,25.1147 L35.0000,25.1147 L34.5000,24.2487 L33.5000,24.2487 L34.0000,25.1147 L33.5000,25.9808 L33.0000,25.1147 L32.5000,24.2487 L33.0000,23.3827 L32.5000,22.5167 L31.5000,22.5167 L32.0000,23.3827 L31.5000,24.2487 L31.0000,23.3827 L30.5000,22.5167 L31.0000,21.6506 L32.0000,21.6506 L32.5000,20.7846 L33.0000,19.9186 L32.0000,19.9186 L31.5000,20.7846 L31.0000,19.9186 L31.5000,19.0526 L31.0000,18.1865 L30.0000,18.1865 L30.5000,19.0526 L30.0000,19.9186 L29.5000,19.0526 L29.0000,18.1865 L29.5000,17.3205 L29.0000,16.4545 L28.0000,16.4545 L27.0000,16.4545 L27.5000,17.3205 L28.5000,17.3205 L28.0000,18.1865 L27.0000,18.1865 L26.5000,17.3205 L25.5000,17.3205 L24.5000,17.3205 L25.0000,18.1865 L26.0000,18.1865 L25.5000,19.0526 L24.5000,19.0526 L24.0000,19.9186 L24.5000,20.7846 L25.0000,21.6506 L25.5000,20.7846 L25.0000,19.9186 L26.0000,19.9186 L26.5000,20.7846 L27.5000,20.7846 L28.0000,19.9186 L27.0000,19.9186 L26.5000,19.0526 L27.5000,19.0526 L28.5000,19.0526 L29.0000,19.9186 L28.5000,20.7846 L29.0000,21.6506 L29.5000,20.7846 L30.5000,20.7846 L30.0000,21.6506 L29.5000,22.5167 L28.5000,22.5167 L28.0000,21.6506 L27.0000,21.6506 L26.0000,21.6506 L26.5000,22.5167 L27.5000,22.5167 L27.0000,23.3827 L26.0000,23.3827 L25.5000,22.5167 L24.5000,22.5167 L25.0000,23.3827 L24.5000,24.2487 L24.0000,23.3827 L23.5000,22.5167 L24.0000,21.6506 L23.5000,20.7846 L22.5000,20.7846 L21.5000,20.7846 L22.0000,21.6506 L23.0000,21.6506 L22.5000,22.5167 L21.5000,22.5167 L21.0000,21.6506 L20.0000,21.6506 L19.0000,21.6506 L19.5000,22.5167 L20.5000,22.5167 L20.0000,23.3827 L19.0000,23.3827 L18.5000,24.2487 L19.0000,25.1147 L19.5000,25.9808 L20.0000,25.1147 L19.5000,24.2487 L20.5000,24.2487 L21.0000,25.1147 L22.0000,25.1147 L22.5000,24.2487 L21.5000,24.2487 L21.0000,23.3827 L22.0000,23.3827 L23.0000,23.3827 L23.5000,24.2487 L23.0000,25.1147 L23.5000,25.9808 L24.0000,25.1147 L25.0000,25.1147 L24.5000,25.9808 L24.0000,26.8468 L23.0000,26.8468 L22.5000,25.9808 L21.5000,25.9808 L20.5000,25.9808 L21.0000,26.8468 L22.0000,26.8468 L21.5000,27.7128 L20.5000,27.7128 L20.0000,28.5788 L20.5000,29.4449 L21.0000,28.5788 L22.0000,28.5788 L21.5000,29.4449 L21.0000,30.3109 L20.0000,30.3109 L19.5000,31.1769 L20.0000,32.0429 L20.5000,32.9090 L21.0000,32.0429 L20.5000,31.1769 L21.5000,31.1769 L22.0000,32.0429 L21.5000,32.9090 L22.0000,33.7750 L22.5000,34.6410 L23.0000,33.7750 L22.5000,32.9090 L23.5000,32.9090 L24.0000,33.7750 L25.0000,33.7750 L25.5000,32.9090 L26.0000,32.0429 L25.0000,32.0429 L24.5000,32.9090 L24.0000,32.0429 L24.5000,31.1769 L24.0000,30.3109 L23.0000,30.3109 L23.5000,31.1769 L23.0000,32.0429 L22.5000,31.1769 L22.0000,30.3109 L22.5000,29.4449 L23.5000,29.4449 L24.0000,28.5788 L23.0000,28.5788 L22.5000,27.7128 L23.5000,27.7128 L24.5000,27.7128 L25.0000,28.5788 L24.5000,29.4449 L25.0000,30.3109 L25.5000,31.1769 L26.0000,30.3109 L25.5000,29.4449 L26.5000,29.4449 L27.0000,30.3109 L28.0000,30.3109 L28.5000,29.4449 L27.5000,29.4449 L27.0000,28.5788 L28.0000,28.5788 L29.0000,28.5788 L29.5000,29.4449 L30.5000,29.4449 L31.0000,28.5788 L31.5000,27.7128 L30.5000,27.7128 L30.0000,28.5788 L29.5000,27.7128 L30.0000,26.8468 L29.5000,25.9808 L28.5000,25.9808 L27.5000,25.9808 L28.0000,26.8468 L29.0000,26.8468 L28.5000,27.7128 L27.5000,27.7128 L27.0000,26.8468 L26.0000,26.8468 L26.5000,27.7128 L26.0000,28.5788 L25.5000,27.7128 L25.0000,26.8468 L25.5000,25.9808 L26.5000,25.9808 L27.0000,25.1147 L26.0000,25.1147 L25.5000,24.2487 L26.5000,24.2487 L27.5000,24.2487 L28.0000,25.1147 L29.0000,25.1147 L29.5000,24.2487 L28.5000,24.2487 L28.0000,23.3827 L29.0000,23.3827 L30.0000,23.3827 L30.5000,24.2487 L30.0000,25.1147 L30.5000,25.9808 L31.0000,26.8468 L31.5000,25.9808 L31.0000,25.1147 L32.0000,25.1147 L32.5000,25.9808 L32.0000,26.8468 L32.5000,27.7128 L33.0000,26.8468 L34.0000,26.8468 L33.5000,27.7128 L33.0000,28.5788 L32.0000,28.5788 L31.5000,29.4449 L32.0000,30.3109 L32.5000,31.1769 L33.0000,30.3109 L32.5000,29.4449 L33.5000,29.4449 L34.0000,30.3109 L35.0000,30.3109 L35.5000,29.4449 L36.0000,28.5788 L35.0000,28.5788 L34.5000,29.4449 L34.0000,28.5788 L34.5000,27.7128 L35.5000,27.7128 L36.0000,26.8468 L35.0000,26.8468 L34.5000,25.9808 L35.5000,25.9808 L36.5000,25.9808 L37.0000,26.8468 L36.5000,27.7128 L37.0000,28.5788 L37.5000,27.7128 L38.5000,27.7128 L38.0000,28.5788 L37.5000,29.4449 L36.5000,29.4449 L36.0000,30.3109 L36.5000,31.1769 L37.0000,30.3109 L38.0000,30.3109 L37.5000,31.1769 L37.0000,32.0429 L36.0000,32.0429 L35.5000,31.1769 L34.5000,31.1769 L33.5000,31.1769 L34.0000,32.0429 L35.0000,32.0429 L34.5000,32.9090 L33.5000,32.9090 L33.0000,32.0429 L32.0000,32.0429 L32.5000,32.9090 L32.0000,33.7750 L31.5000,32.9090 L31.0000,32.0429 L31.5000,31.1769 L31.0000,30.3109 L30.0000,30.3109 L29.0000,30.3109 L29.5000,31.1769 L30.5000,31.1769 L30.0000,32.0429 L29.0000,32.0429 L28.5000,31.1769 L27.5000,31.1769 L26.5000,31.1769 L27.0000,32.0429 L28.0000,32.0429 L27.5000,32.9090 L26.5000,32.9090 L26.0000,33.7750 L26.5000,34.6410 L27.0000,35.5070 L27.5000,34.6410 L27.0000,33.7750 L28.0000,33.7750 L28.5000,34.6410 L29.5000,34.6410 L30.0000,33.7750 L29.0000,33.7750 L28.5000,32.9090 L29.5000,32.9090 L30.5000,32.9090 L31.0000,33.7750 L30.5000,34.6410 L31.0000,35.5070 L31.5000,34.6410 L32.5000,34.6410 L32.0000,35.5070 L31.5000,36.3731 L30.5000,36.3731 L30.0000,35.5070 L29.0000,35.5070 L28.0000,35.5070 L28.5000,36.3731 L29.5000,36.3731 L29.0000,37.2391 L28.0000,37.2391 L27.5000,36.3731 L26.5000,36.3731 L27.0000,37.2391 L26.5000,38.1051 L26.0000,37.2391 L25.5000,36.3731 L26.0000,35.5070 L25.5000,34.6410 L24.5000,34.6410 L23.5000,34.6410 L24.0000,35.5070 L25.0000,35.5070 L24.5000,36.3731 L23.5000,36.3731 L23.0000,37.2391 L23.5000,38.1051 L24.0000,38.9711 L24.5000,38.1051 L24.0000,37.2391 L25.0000,37.2391 L25.5000,38.1051 L25.0000,38.9711 L25.5000,39.8372 L26.0000,38.9711 L27.0000,38.9711 L26.5000,39.8372 L26.0000,40.7032 L25.0000,40.7032 L24.5000,39.8372 L23.5000,39.8372 L24.0000,40.7032 L23.5000,41.5692 L23.0000,40.7032 L22.5000,39.8372 L23.0000,38.9711 L22.5000,38.1051 L21.5000,38.1051 L22.0000,38.9711 L21.5000,39.8372 L21.0000,38.9711 L20.5000,38.1051 L21.0000,37.2391 L22.0000,37.2391 L22.5000,36.3731 L23.0000,35.5070 L22.0000,35.5070 L21.5000,36.3731 L21.0000,35.5070 L21.5000,34.6410 L21.0000,33.7750 L20.0000,33.7750 L20.5000,34.6410 L20.0000,35.5070 L19.5000,34.6410 L19.0000,33.7750 L19.5000,32.9090 L19.0000,32.0429 L18.0000,32.0429 L17.0000,32.0429 L17.5000,32.9090 L18.5000,32.9090 L18.0000,33.7750 L17.0000,33.7750 L16.5000,32.9090 L15.5000,32.9090 L14.5000,32.9090 L15.0000,33.7750 L16.0000,33.7750 L15.5000,34.6410 L14.5000,34.6410 L14.0000,35.5070 L14.5000,36.3731 L15.0000,37.2391 L15.5000,36.3731 L15.0000,35.5070 L16.0000,35.5070 L16.5000,36.3731 L17.5000,36.3731 L18.0000,35.5070 L17.0000,35.5070 L16.5000,34.6410 L17.5000,34.6410 L18.5000,34.6410 L19.0000,35.5070 L18.5000,36.3731 L19.0000,37.2391 L19.5000,36.3731 L20.5000,36.3731 L20.0000,37.2391 L19.5000,38.1051 L18.5000,38.1051 L18.0000,37.2391 L17.0000,37.2391 L16.0000,37.2391 L16.5000,38.1051 L17.5000,38.1051 L17.0000,38.9711 L16.0000,38.9711 L15.5000,39.8372 L16.0000,40.7032 L16.5000,39.8372 L17.5000,39.8372 L17.0000,40.7032 L16.5000,41.5692 L15.5000,41.5692 L15.0000,42.4352 L15.5000,43.3013 L16.0000,44.1673 L16.5000,43.3013 L16.0000,42.4352 L17.0000,42.4352 L17.5000,43.3013 L17.0000,44.1673 L17.5000,45.0333 L18.0000,45.8993 L18.5000,45.0333 L18.0000,44.1673 L19.0000,44.1673 L19.5000,45.0333 L20.5000,45.0333 L21.0000,44.1673 L21.5000,43.3013 L20.5000,43.3013 L20.0000,44.1673 L19.5000,43.3013 L20.0000,42.4352 L19.5000,41.5692 L18.5000,41.5692 L19.0000,42.4352 L18.5000,43.3013 L18.0000,42.4352 L17.5000,41.5692 L18.0000,40.7032 L19.0000,40.7032 L19.5000,39.8372 L18.5000,39.8372 L18.0000,38.9711 L19.0000,38.9711 L20.0000,38.9711 L20.5000,39.8372 L20.0000,40.7032 L20.5000,41.5692 L21.0000,42.4352 L21.5000,41.5692 L21.0000,40.7032 L22.0000,40.7032 L22.5000,41.5692 L22.0000,42.4352 L22.5000,43.3013 L23.0000,42.4352 L24.0000,42.4352 L23.5000,43.3013 L23.0000,44.1673 L22.0000,44.1673 L21.5000,45.0333 L22.0000,45.8993 L22.5000,46.7654 L23.0000,45.8993 L22.5000,45.0333 L23.5000,45.0333 L24.0000,45.8993 L25.0000,45.8993 L25.5000,45.0333 L26.0000,44.1673 L25.0000,44.1673 L24.5000,45.0333 L24.0000,44.1673 L24.5000,43.3013 L25.5000,43.3013 L26.0000,42.4352 L25.0000,42.4352 L24.5000,41.5692 L25.5000,41.5692 L26.5000,41.5692 L27.0000,42.4352 L26.5000,43.3013 L27.0000,44.1673 L27.5000,43.3013 L28.5000,43.3013 L28.0000,44.1673 L27.5000,45.0333 L26.5000,45.0333 L26.0000,45.8993 L26.5000,46.7654 L27.0000,45.8993 L28.0000,45.8993 L27.5000,46.7654 L27.0000,47.6314 L26.0000,47.6314 L25.5000,46.7654 L24.5000,46.7654 L23.5000,46.7654 L24.0000,47.6314 L25.0000,47.6314 L24.5000,48.4974 L23.5000,48.4974 L23.0000,47.6314 L22.0000,47.6314 L22.5000,48.4974 L22.0000,49.3634 L21.5000,48.4974 L21.0000,47.6314 L21.5000,46.7654 L21.0000,45.8993 L20.0000,45.8993 L19.0000,45.8993 L19.5000,46.7654 L20.5000,46.7654 L20.0000,47.6314 L19.0000,47.6314 L18.5000,48.4974 L19.0000,49.3634 L19.5000,50.2295 L20.0000,49.3634 L19.5000,48.4974 L20.5000,48.4974 L21.0000,49.3634 L20.5000,50.2295 L21.0000,51.0955 L21.5000,50.2295 L22.5000,50.2295 L22.0000,51.0955 L21.5000,51.9615 L20.5000,51.9615 L20.0000,51.0955 L19.0000,51.0955 L19.5000,51.9615 L19.0000,52.8275 L18.5000,51.9615 L18.0000,51.0955 L18.5000,50.2295 L18.0000,49.3634 L17.0000,49.3634 L17.5000,50.2295 L17.0000,51.0955 L16.5000,50.2295 L16.0000,49.3634 L16.5000,48.4974 L17.5000,48.4974 L18.0000,47.6314 L18.5000,46.7654 L17.5000,46.7654 L17.0000,47.6314 L16.5000,46.7654 L17.0000,45.8993 L16.5000,45.0333 L15.5000,45.0333 L16.0000,45.8993 L15.5000,46.7654 L15.0000,45.8993 L14.5000,45.0333 L15.0000,44.1673 L14.5000,43.3013 L13.5000,43.3013 L12.5000,43.3013 L13.0000,44.1673 L14.0000,44.1673 L13.5000,45.0333 L12.5000,45.0333 L12.0000,45.8993 L12.5000,46.7654 L13.0000,47.6314 L13.5000,46.7654 L13.0000,45.8993 L14.0000,45.8993 L14.5000,46.7654 L14.0000,47.6314 L14.5000,48.4974 L15.0000,47.6314 L16.0000,47.6314 L15.5000,48.4974 L15.0000,49.3634 L14.0000,49.3634 L13.5000,48.4974 L12.5000,48.4974 L13.0000,49.3634 L12.5000,50.2295 L12.0000,49.3634 L11.5000,48.4974 L12.0000,47.6314 L11.5000,46.7654 L10.5000,46.7654 L11.0000,47.6314 L10.5000,48.4974 L10.0000,47.6314 L9.5000,46.7654 L10.0000,45.8993 L11.0000,45.8993 L11.5000,45.0333 L12.0000,44.1673 L11.0000,44.1673 L10.5000,45.0333 L10.0000,44.1673 L10.5000,43.3013 L11.5000,43.3013 L12.0000,42.4352 L11.0000,42.4352 L10.5000,41.5692 L11.5000,41.5692 L12.5000,41.5692 L13.0000,42.4352 L14.0000,42.4352 L14.5000,41.5692 L15.0000,40.7032 L14.0000,40.7032 L13.5000,41.5692 L13.0000,40.7032 L13.5000,39.8372 L14.5000,39.8372 L15.0000,38.9711 L15.5000,38.1051 L14.5000,38.1051 L14.0000,38.9711 L13.5000,38.1051 L14.0000,37.2391 L13.5000,36.3731 L12.5000,36.3731 L11.5000,36.3731 L12.0000,37.2391 L13.0000,37.2391 L12.5000,38.1051 L11.5000,38.1051 L11.0000,38.9711 L11.5000,39.8372 L12.0000,38.9711 L13.0000,38.9711 L12.5000,39.8372 L12.0000,40.7032 L11.0000,40.7032 L10.5000,39.8372 L9.5000,39.8372 L10.0000,40.7032 L9.5000,41.5692 L9.0000,40.7032 L8.5000,39.8372 L9.0000,38.9711 L10.0000,38.9711 L10.5000,38.1051 L11.0000,37.2391 L10.0000,37.2391 L9.5000,38.1051 L9.0000,37.2391 L9.5000,36.3731 L10.5000,36.3731 L11.0000,35.5070 L10.0000,35.5070 L9.5000,34.6410 L10.5000,34.6410 L11.5000,34.6410 L12.0000,35.5070 L13.0000,35.5070 L13.5000,34.6410 L14.0000,33.7750 L13.0000,33.7750 L12.5000,34.6410 L12.0000,33.7750 L12.5000,32.9090 L12.0000,32.0429 L11.0000,32.0429 L10.0000,32.0429 L10.5000,32.9090 L11.5000,32.9090 L11.0000,33.7750 L10.0000,33.7750 L9.5000,32.9090 L8.5000,32.9090 L9.0000,33.7750 L8.5000,34.6410 L8.0000,33.7750 L7.5000,32.9090 L8.0000,32.0429 L9.0000,32.0429 L9.5000,31.1769 L8.5000,31.1769 L8.0000,30.3109 L9.0000,30.3109 L10.0000,30.3109 L10.5000,31.1769 L11.5000,31.1769 L12.0000,30.3109 L11.0000,30.3109 L10.5000,29.4449 L11.5000,29.4449 L12.5000,29.4449 L13.0000,30.3109 L12.5000,31.1769 L13.0000,32.0429 L13.5000,32.9090 L14.0000,32.0429 L13.5000,31.1769 L14.5000,31.1769 L15.0000,32.0429 L16.0000,32.0429 L16.5000,31.1769 L15.5000,31.1769 L15.0000,30.3109 L16.0000,30.3109 L17.0000,30.3109 L17.5000,31.1769 L18.5000,31.1769 L19.0000,30.3109 L19.5000,29.4449 L18.5000,29.4449 L18.0000,30.3109 L17.5000,29.4449 L18.0000,28.5788 L19.0000,28.5788 L19.5000,27.7128 L20.0000,26.8468 L19.0000,26.8468 L18.5000,27.7128 L18.0000,26.8468 L18.5000,25.9808 L18.0000,25.1147 L17.0000,25.1147 L16.0000,25.1147 L16.5000,25.9808 L17.5000,25.9808 L17.0000,26.8468 L16.0000,26.8468 L15.5000,27.7128 L16.0000,28.5788 L16.5000,27.7128 L17.5000,27.7128 L17.0000,28.5788 L16.5000,29.4449 L15.5000,29.4449 L15.0000,28.5788 L14.0000,28.5788 L14.5000,29.4449 L14.0000,30.3109 L13.5000,29.4449 L13.0000,28.5788 L13.5000,27.7128 L14.5000,27.7128 L15.0000,26.8468 L15.5000,25.9808 L14.5000,25.9808 L14.0000,26.8468 L13.5000,25.9808 L14.0000,25.1147 L13.5000,24.2487 L12.5000,24.2487 L13.0000,25.1147 L12.5000,25.9808 L12.0000,25.1147 L11.5000,24.2487 L12.0000,23.3827 L11.5000,22.5167 L10.5000,22.5167 L9.5000,22.5167 L10.0000,23.3827 L11.0000,23.3827 L10.5000,24.2487 L9.5000,24.2487 L9.0000,23.3827 L8.0000,23.3827 L7.0000,23.3827 L7.5000,24.2487 L8.5000,24.2487 L8.0000,25.1147 L7.0000,25.1147 L6.5000,25.9808 L7.0000,26.8468 L7.5000,27.7128 L8.0000,26.8468 L7.5000,25.9808 L8.5000,25.9808 L9.0000,26.8468 L10.0000,26.8468 L10.5000,25.9808 L9.5000,25.9808 L9.0000,25.1147 L10.0000,25.1147 L11.0000,25.1147 L11.5000,25.9808 L11.0000,26.8468 L11.5000,27.7128 L12.0000,26.8468 L13.0000,26.8468 L12.5000,27.7128 L12.0000,28.5788 L11.0000,28.5788 L10.5000,27.7128 L9.5000,27.7128 L8.5000,27.7128 L9.0000,28.5788 L10.0000,28.5788 L9.5000,29.4449 L8.5000,29.4449 L8.0000,28.5788 L7.0000,28.5788 L7.5000,29.4449 L7.0000,30.3109 L6.5000,29.4449 L6.0000,28.5788 L6.5000,27.7128 L6.0000,26.8468 L5.0000,26.8468 L4.0000,26.8468 L4.5000,27.7128 L5.5000,27.7128 L5.0000,28.5788 L4.0000,28.5788 L3.5000,29.4449 L4.0000,30.3109 L4.5000,31.1769 L5.0000,30.3109 L4.5000,29.4449 L5.5000,29.4449 L6.0000,30.3109 L5.5000,31.1769 L6.0000,32.0429 L6.5000,31.1769 L7.5000,31.1769 L7.0000,32.0429 L6.5000,32.9090 L5.5000,32.9090 L5.0000,32.0429 L4.0000,32.0429 L4.5000,32.9090 L4.0000,33.7750 L3.5000,32.9090 L3.0000,32.0429 L3.5000,31.1769 L3.0000,30.3109 L2.0000,30.3109 L2.5000,31.1769 L2.0000,32.0429 L1.5000,31.1769 L1.0000,30.3109 L1.5000,29.4449 L2.5000,29.4449 L3.0000,28.5788 L3.5000,27.7128 L2.5000,27.7128 L2.0000,28.5788 L1.5000,27.7128 L2.0000,26.8468 L3.0000,26.8468 L3.5000,25.9808 L2.5000,25.9808 L2.0000,25.1147 L3.0000,25.1147 L4.0000,25.1147 L4.5000,25.9808 L5.5000,25.9808 L6.0000,25.1147 L6.5000,24.2487 L5.5000,24.2487 L5.0000,25.1147 L4.5000,24.2487 L5.0000,23.3827 L4.5000,22.5167 L3.5000,22.5167 L2.5000,22.5167 L3.0000,23.3827 L4.0000,23.3827 L3.5000,24.2487 L2.5000,24.2487 L2.0000,23.3827 L1.0000,23.3827 L1.5000,24.2487 L1.0000,25.1147 L0.5000,24.2487 L0.0000,23.3827 L0.5000,22.5167 L1.5000,22.5167 L2.0000,21.6506 L1.0000,21.6506 L0.5000,20.7846 L1.5000,20.7846 L2.5000,20.7846 L3.0000,21.6506 L4.0000,21.6506 L4.5000,20.7846 L3.5000,20.7846 L3.0000,19.9186 L4.0000,19.9186 L5.0000,19.9186 L5.5000,20.7846 L5.0000,21.6506 L5.5000,22.5167 L6.0000,23.3827 L6.5000,22.5167 L6.0000,21.6506 L7.0000,21.6506 L7.5000,22.5167 L8.5000,22.5167 L9.0000,21.6506 L8.0000,21.6506 L7.5000,20.7846 L8.5000,20.7846 L9.5000,20.7846 L10.0000,21.6506 L11.0000,21.6506 L11.5000,20.7846 L12.0000,19.9186 L11.0000,19.9186 L10.5000,20.7846 L10.0000,19.9186 L10.5000,19.0526 L10.0000,18.1865 L9.0000,18.1865 L8.0000,18.1865 L8.5000,19.0526 L9.5000,19.0526 L9.0000,19.9186 L8.0000,19.9186 L7.5000,19.0526 L6.5000,19.0526 L7.0000,19.9186 L6.5000,20.7846 L6.0000,19.9186 L5.5000,19.0526 L6.0000,18.1865 L7.0000,18.1865 L7.5000,17.3205 L6.5000,17.3205 L6.0000,16.4545 L7.0000,16.4545 L8.0000,16.4545 L8.5000,17.3205 L9.5000,17.3205 L10.0000,16.4545 L9.0000,16.4545 L8.5000,15.5885 L9.5000,15.5885 L10.5000,15.5885 L11.0000,16.4545 L10.5000,17.3205 L11.0000,18.1865 L11.5000,19.0526 L12.0000,18.1865 L11.5000,17.3205 L12.5000,17.3205 L13.0000,18.1865 L12.5000,19.0526 L13.0000,19.9186 L13.5000,19.0526 L14.5000,19.0526 L14.0000,19.9186 L13.5000,20.7846 L12.5000,20.7846 L12.0000,21.6506 L12.5000,22.5167 L13.0000,23.3827 L13.5000,22.5167 L13.0000,21.6506 L14.0000,21.6506 L14.5000,22.5167 L14.0000,23.3827 L14.5000,24.2487 L15.0000,25.1147 L15.5000,24.2487 L15.0000,23.3827 L16.0000,23.3827 L16.5000,24.2487 L17.5000,24.2487 L18.0000,23.3827 L18.5000,22.5167 L17.5000,22.5167 L17.0000,23.3827 L16.5000,22.5167 L17.0000,21.6506 L16.5000,20.7846 L15.5000,20.7846 L16.0000,21.6506 L15.5000,22.5167 L15.0000,21.6506 L14.5000,20.7846 L15.0000,19.9186 L16.0000,19.9186 L16.5000,19.0526 L15.5000,19.0526 L15.0000,18.1865 L16.0000,18.1865 L17.0000,18.1865 L17.5000,19.0526 L17.0000,19.9186 L17.5000,20.7846 L18.0000,21.6506 L18.5000,20.7846 L18.0000,19.9186 L19.0000,19.9186 L19.5000,20.7846 L20.5000,20.7846 L21.0000,19.9186 L20.0000,19.9186 L19.5000,19.0526 L20.5000,19.0526 L21.5000,19.0526 L22.0000,19.9186 L23.0000,19.9186 L23.5000,19.0526 L24.0000,18.1865 L23.0000,18.1865 L22.5000,19.0526 L22.0000,18.1865 L22.5000,17.3205 L22.0000,16.4545 L21.0000,16.4545 L20.0000,16.4545 L20.5000,17.3205 L21.5000,17.3205 L21.0000,18.1865 L20.0000,18.1865 L19.5000,17.3205 L18.5000,17.3205 L19.0000,18.1865 L18.5000,19.0526 L18.0000,18.1865 L17.5000,17.3205 L18.0000,16.4545 L19.0000,16.4545 L19.5000,15.5885 L18.5000,15.5885 L18.0000,14.7224 L19.0000,14.7224 L20.0000,14.7224 L20.5000,15.5885 L21.5000,15.5885 L22.0000,14.7224 L21.0000,14.7224 L20.5000,13.8564 L21.5000,13.8564 L22.5000,13.8564 L23.0000,14.7224 L22.5000,15.5885 L23.0000,16.4545 L23.5000,17.3205 L24.0000,16.4545 L23.5000,15.5885 L24.5000,15.5885 L25.0000,16.4545 L26.0000,16.4545 L26.5000,15.5885 L25.5000,15.5885 L25.0000,14.7224 L26.0000,14.7224 L27.0000,14.7224 L27.5000,15.5885 L28.5000,15.5885 L29.0000,14.7224 L29.5000,13.8564 L28.5000,13.8564 L28.0000,14.7224 L27.5000,13.8564 L28.0000,12.9904 L29.0000,12.9904 L29.5000,12.1244 L30.0000,11.2583 L29.0000,11.2583 L28.5000,12.1244 L28.0000,11.2583 L28.5000,10.3923 L28.0000,9.5263 L27.0000,9.5263 L26.0000,9.5263 L26.5000,10.3923 L27.5000,10.3923 L27.0000,11.2583 L26.0000,11.2583 L25.5000,12.1244 L26.0000,12.9904 L26.5000,12.1244 L27.5000,12.1244 L27.0000,12.9904 L26.5000,13.8564 L25.5000,13.8564 L25.0000,12.9904 L24.0000,12.9904 L24.5000,13.8564 L24.0000,14.7224 L23.5000,13.8564 L23.0000,12.9904 L23.5000,12.1244 L24.5000,12.1244 L25.0000,11.2583 L25.5000,10.3923 L24.5000,10.3923 L24.0000,11.2583 L23.5000,10.3923 L24.0000,9.5263 L23.5000,8.6603 L22.5000,8.6603 L23.0000,9.5263 L22.5000,10.3923 L22.0000,9.5263 L21.5000,8.6603 L22.0000,7.7942 L21.5000,6.9282 L20.5000,6.9282 L19.5000,6.9282 L20.0000,7.7942 L21.0000,7.7942 L20.5000,8.6603 L19.5000,8.6603 L19.0000,7.7942 L18.0000,7.7942 L17.0000,7.7942 L17.5000,8.6603 L18.5000,8.6603 L18.0000,9.5263 L17.0000,9.5263 L16.5000,10.3923 L17.0000,11.2583 L17.5000,12.1244 L18.0000,11.2583 L17.5000,10.3923 L18.5000,10.3923 L19.0000,11.2583 L20.0000,11.2583 L20.5000,10.3923 L19.5000,10.3923 L19.0000,9.5263 L20.0000,9.5263 L21.0000,9.5263 L21.5000,10.3923 L21.0000,11.2583 L21.5000,12.1244 L22.0000,11.2583 L23.0000,11.2583 L22.5000,12.1244 L22.0000,12.9904 L21.0000,12.9904 L20.5000,12.1244 L19.5000,12.1244 L18.5000,12.1244 L19.0000,12.9904 L20.0000,12.9904 L19.5000,13.8564 L18.5000,13.8564 L18.0000,12.9904 L17.0000,12.9904 L17.5000,13.8564 L17.0000,14.7224 L16.5000,13.8564 L16.0000,12.9904 L16.5000,12.1244 L16.0000,11.2583 L15.0000,11.2583 L14.0000,11.2583 L14.5000,12.1244 L15.5000,12.1244 L15.0000,12.9904 L14.0000,12.9904 L13.5000,13.8564 L14.0000,14.7224 L14.5000,15.5885 L15.0000,14.7224 L14.5000,13.8564 L15.5000,13.8564 L16.0000,14.7224 L15.5000,15.5885 L16.0000,16.4545 L16.5000,15.5885 L17.5000,15.5885 L17.0000,16.4545 L16.5000,17.3205 L15.5000,17.3205 L15.0000,16.4545 L14.0000,16.4545 L14.5000,17.3205 L14.0000,18.1865 L13.5000,17.3205 L13.0000,16.4545 L13.5000,15.5885 L13.0000,14.7224 L12.0000,14.7224 L12.5000,15.5885 L12.0000,16.4545 L11.5000,15.5885 L11.0000,14.7224 L11.5000,13.8564 L12.5000,13.8564 L13.0000,12.9904 L13.5000,12.1244 L12.5000,12.1244 L12.0000,12.9904 L11.5000,12.1244 L12.0000,11.2583 L13.0000,11.2583 L13.5000,10.3923 L12.5000,10.3923 L12.0000,9.5263 L13.0000,9.5263 L14.0000,9.5263 L14.5000,10.3923 L15.5000,10.3923 L16.0000,9.5263 L16.5000,8.6603 L15.5000,8.6603 L15.0000,9.5263 L14.5000,8.6603 L15.0000,7.7942 L14.5000,6.9282 L13.5000,6.9282 L12.5000,6.9282 L13.0000,7.7942 L14.0000,7.7942 L13.5000,8.6603 L12.5000,8.6603 L12.0000,7.7942 L11.0000,7.7942 L11.5000,8.6603 L11.0000,9.5263 L10.5000,8.6603 L10.0000,7.7942 L10.5000,6.9282 L11.5000,6.9282 L12.0000,6.0622 L11.0000,6.0622 L10.5000,5.1962 L11.5000,5.1962 L12.5000,5.1962 L13.0000,6.0622 L14.0000,6.0622 L14.5000,5.1962 L13.5000,5.1962 L13.0000,4.3301 L14.0000,4.3301 L15.0000,4.3301 L15.5000,5.1962 L15.0000,6.0622 L15.5000,6.9282 L16.0000,7.7942 L16.5000,6.9282 L16.0000,6.0622 L17.0000,6.0622 L17.5000,6.9282 L18.5000,6.9282 L19.0000,6.0622 L18.0000,6.0622 L17.5000,5.1962 L18.5000,5.1962 L19.5000,5.1962 L20.0000,6.0622 L21.0000,6.0622 L21.5000,5.1962 L22.0000,4.3301 L21.0000,4.3301 L20.5000,5.1962 L20.0000,4.3301 L20.5000,3.4641 L20.0000,2.5981 L19.0000,2.5981 L18.0000,2.5981 L18.5000,3.4641 L19.5000,3.4641 L19.0000,4.3301 L18.0000,4.3301 L17.5000,3.4641 L16.5000,3.4641 L17.0000,4.3301 L16.5000,5.1962 L16.0000,4.3301 L15.5000,3.4641 L16.0000,2.5981 L17.0000,2.5981 L17.5000,1.7321 L16.5000,1.7321 L16.0000,0.8660 L17.0000,0.8660 L18.0000,0.8660 L18.5000,1.7321 L19.5000,1.7321 L20.0000,0.8660 L19.0000,0.8660 L18.5000,0.0000 L19.5000,0.0000 L20.5000,0.0000 L21.0000,0.8660 L20.5000,1.7321 L21.0000,2.5981 L21.5000,3.4641 L22.0000,2.5981 L21.5000,1.7321 L22.5000,1.7321 L23.0000,2.5981 L22.5000,3.4641 L23.0000,4.3301 L23.5000,3.4641 L24.5000,3.4641 L24.0000,4.3301 L23.5000,5.1962 L22.5000,5.1962 L22.0000,6.0622 L22.5000,6.9282 L23.0000,7.7942 L23.5000,6.9282 L23.0000,6.0622 L24.0000,6.0622 L24.5000,6.9282 L24.0000,7.7942 L24.5000,8.6603 L25.0000,9.5263 L25.5000,8.6603 L25.0000,7.7942 L26.0000,7.7942 L26.5000,8.6603 L27.5000,8.6603 L28.0000,7.7942 L28.5000,6.9282 L27.5000,6.9282 L27.0000,7.7942 L26.5000,6.9282 L27.0000,6.0622 L26.5000,5.1962 L25.5000,5.1962 L26.0000,6.0622 L25.5000,6.9282 L25.0000,6.0622 L24.5000,5.1962 L25.0000,4.3301 L26.0000,4.3301 L26.5000,3.4641 L25.5000,3.4641 L25.0000,2.5981 L26.0000,2.5981 L27.0000,2.5981 L27.5000,3.4641 L27.0000,4.3301 L27.5000,5.1962 L28.0000,6.0622 L28.5000,5.1962 L28.0000,4.3301 L29.0000,4.3301 L29.5000,5.1962 L29.0000,6.0622 L29.5000,6.9282 L30.0000,6.0622 L31.0000,6.0622 L30.5000,6.9282 L30.0000,7.7942 L29.0000,7.7942 L28.5000,8.6603 L29.0000,9.5263 L29.5000,10.3923 L30.0000,9.5263 L29.5000,8.6603 L30.5000,8.6603 L31.0000,9.5263 L32.0000,9.5263 L32.5000,8.6603 L33.0000,7.7942 L32.0000,7.7942 L31.5000,8.6603 L31.0000,7.7942 L31.5000,6.9282 L32.5000,6.9282 L33.0000,6.0622 L32.0000,6.0622 L31.5000,5.1962 L32.5000,5.1962 L33.5000,5.1962 L34.0000,6.0622 L33.5000,6.9282 L34.0000,7.7942 L34.5000,6.9282 L35.5000,6.9282 L35.0000,7.7942 L34.5000,8.6603 L33.5000,8.6603 L33.0000,9.5263 L33.5000,10.3923 L34.0000,9.5263 L35.0000,9.5263 L34.5000,10.3923 L34.0000,11.2583 L33.0000,11.2583 L32.5000,10.3923 L31.5000,10.3923 L30.5000,10.3923 L31.0000,11.2583 L32.0000,11.2583 L31.5000,12.1244 L30.5000,12.1244 L30.0000,12.9904 L30.5000,13.8564 L31.0000,12.9904 L32.0000,12.9904 L31.5000,13.8564 L31.0000,14.7224 L30.0000,14.7224 L29.5000,15.5885 L30.0000,16.4545 L30.5000,17.3205 L31.0000,16.4545 L30.5000,15.5885 L31.5000,15.5885 L32.0000,16.4545 L31.5000,17.3205 L32.0000,18.1865 L32.5000,19.0526 L33.0000,18.1865 L32.5000,17.3205 L33.5000,17.3205 L34.0000,18.1865 L35.0000,18.1865 L35.5000,17.3205 L36.0000,16.4545 L35.0000,16.4545 L34.5000,17.3205 L34.0000,16.4545 L34.5000,15.5885 L34.0000,14.7224 L33.0000,14.7224 L33.5000,15.5885 L33.0000,16.4545 L32.5000,15.5885 L32.0000,14.7224 L32.5000,13.8564 L33.5000,13.8564 L34.0000,12.9904 L33.0000,12.9904 L32.5000,12.1244 L33.5000,12.1244 L34.5000,12.1244 L35.0000,12.9904 L34.5000,13.8564 L35.0000,14.7224 L35.5000,15.5885 L36.0000,14.7224 L35.5000,13.8564 L36.5000,13.8564 L37.0000,14.7224 L36.5000,15.5885 L37.0000,16.4545 L37.5000,15.5885 L38.5000,15.5885 L38.0000,16.4545 L37.5000,17.3205 L36.5000,17.3205 L36.0000,18.1865 L36.5000,19.0526 L37.0000,19.9186 L37.5000,19.0526 L37.0000,18.1865 L38.0000,18.1865 L38.5000,19.0526 L38.0000,19.9186 L38.5000,20.7846 L39.0000,21.6506 L39.5000,20.7846 L39.0000,19.9186 L40.0000,19.9186 L40.5000,20.7846 L41.5000,20.7846 L42.0000,19.9186 L42.5000,19.0526 L41.5000,19.0526 L41.0000,19.9186 L40.5000,19.0526 L41.0000,18.1865 L40.5000,17.3205 L39.5000,17.3205 L40.0000,18.1865 L39.5000,19.0526 L39.0000,18.1865 L38.5000,17.3205 L39.0000,16.4545 L40.0000,16.4545 L40.5000,15.5885 L39.5000,15.5885 L39.0000,14.7224 L40.0000,14.7224 L41.0000,14.7224 L41.5000,15.5885 L41.0000,16.4545 L41.5000,17.3205 L42.0000,18.1865 L42.5000,17.3205 L42.0000,16.4545 L43.0000,16.4545 L43.5000,17.3205 L44.5000,17.3205 L45.0000,16.4545 L44.0000,16.4545 L43.5000,15.5885 L44.5000,15.5885 L45.5000,15.5885 L46.0000,16.4545 L47.0000,16.4545 L47.5000,15.5885 L48.0000,14.7224 L47.0000,14.7224 L46.5000,15.5885 L46.0000,14.7224 L46.5000,13.8564 L47.5000,13.8564 L48.0000,12.9904 L48.5000,12.1244 L47.5000,12.1244 L47.0000,12.9904 L46.5000,12.1244 L47.0000,11.2583 L46.5000,10.3923 L45.5000,10.3923 L44.5000,10.3923 L45.0000,11.2583 L46.0000,11.2583 L45.5000,12.1244 L44.5000,12.1244 L44.0000,12.9904 L44.5000,13.8564 L45.0000,12.9904 L46.0000,12.9904 L45.5000,13.8564 L45.0000,14.7224 L44.0000,14.7224 L43.5000,13.8564 L42.5000,13.8564 L43.0000,14.7224 L42.5000,15.5885 L42.0000,14.7224 L41.5000,13.8564 L42.0000,12.9904 L43.0000,12.9904 L43.5000,12.1244 L44.0000,11.2583 L43.0000,11.2583 L42.5000,12.1244 L42.0000,11.2583 L42.5000,10.3923 L42.0000,9.5263 L41.0000,9.5263 L41.5000,10.3923 L41.0000,11.2583 L40.5000,10.3923 L40.0000,9.5263 L40.5000,8.6603 L40.0000,7.7942 L39.0000,7.7942 L38.0000,7.7942 L38.5000,8.6603 L39.5000,8.6603 L39.0000,9.5263 L38.0000,9.5263 L37.5000,10.3923 L38.0000,11.2583 L38.5000,12.1244 L39.0000,11.2583 L38.5000,10.3923 L39.5000,10.3923 L40.0000,11.2583 L39.5000,12.1244 L40.0000,12.9904 L40.5000,12.1244 L41.5000,12.1244 L41.0000,12.9904 L40.5000,13.8564 L39.5000,13.8564 L39.0000,12.9904 L38.0000,12.9904 L38.5000,13.8564 L38.0000,14.7224 L37.5000,13.8564 L37.0000,12.9904 L37.5000,12.1244 L37.0000,11.2583 L36.0000,11.2583 L36.5000,12.1244 L36.0000,12.9904 L35.5000,12.1244 L35.0000,11.2583 L35.5000,10.3923 L36.5000,10.3923 L37.0000,9.5263 L37.5000,8.6603 L36.5000,8.6603 L36.0000,9.5263 L35.5000,8.6603 L36.0000,7.7942 L37.0000,7.7942 L37.5000,6.9282 L36.5000,6.9282 L36.0000,6.0622 L37.0000,6.0622 L38.0000,6.0622 L38.5000,6.9282 L39.5000,6.9282 L40.0000,6.0622 L40.5000,5.1962 L39.5000,5.1962 L39.0000,6.0622 L38.5000,5.1962 L39.0000,4.3301 L38.5000,3.4641 L37.5000,3.4641 L36.5000,3.4641 L37.0000,4.3301 L38.0000,4.3301 L37.5000,5.1962 L36.5000,5.1962 L36.0000,4.3301 L35.0000,4.3301 L35.5000,5.1962 L35.0000,6.0622 L34.5000,5.1962 L34.0000,4.3301 L34.5000,3.4641 L35.5000,3.4641 L36.0000,2.5981 L35.0000,2.5981 L34.5000,1.7321 L35.5000,1.7321 L36.5000,1.7321 L37.0000,2.5981 L38.0000,2.5981 L38.5000,1.7321 L37.5000,1.7321 L37.0000,0.8660 L38.0000,0.8660 L39.0000,0.8660 L39.5000,1.7321 L39.0000,2.5981 L39.5000,3.4641 L40.0000,4.3301 L40.5000,3.4641 L40.0000,2.5981 L41.0000,2.5981 L41.5000,3.4641 L41.0000,4.3301 L41.5000,5.1962 L42.0000,4.3301 L43.0000,4.3301 L42.5000,5.1962 L42.0000,6.0622 L41.0000,6.0622 L40.5000,6.9282 L41.0000,7.7942 L41.5000,8.6603 L42.0000,7.7942 L41.5000,6.9282 L42.5000,6.9282 L43.0000,7.7942 L42.5000,8.6603 L43.0000,9.5263 L43.5000,10.3923 L44.0000,9.5263 L43.5000,8.6603 L44.5000,8.6603 L45.0000,9.5263 L46.0000,9.5263 L46.5000,8.6603 L47.0000,7.7942 L46.0000,7.7942 L45.5000,8.6603 L45.0000,7.7942 L45.5000,6.9282 L45.0000,6.0622 L44.0000,6.0622 L44.5000,6.9282 L44.0000,7.7942 L43.5000,6.9282 L43.0000,6.0622 L43.5000,5.1962 L44.5000,5.1962 L45.0000,4.3301 L44.0000,4.3301 L43.5000,3.4641 L44.5000,3.4641 L45.5000,3.4641 L46.0000,4.3301 L45.5000,5.1962 L46.0000,6.0622 L46.5000,6.9282 L47.0000,6.0622 L46.5000,5.1962 L47.5000,5.1962 L48.0000,6.0622"/></defs><g fill="none" stroke="#eabd4d" stroke-linejoin="round" stroke-linecap="round"><g transform="translate(-65,-20) scale(11.547005)"><use xlink:href="#curve" stroke-width="0.090933"/></g><g transform="translate(1505,960) rotate(180) scale(11.547005)"><use xlink:href="#curve" stroke-width="0.090933"/></g></g></svg>